<svg width="1em" height="1em" viewBox="0 0 19 19" fill="none" xmlns="http://www.w3.org/2000/svg">
<path fill-rule="evenodd" clip-rule="evenodd" d="M3.92487 3.87075L7.21335 2.49534C7.07037 1.76179 7.27054 0.239668 9.21503 0.0196023C11.1595 -0.200463 11.741 1.48671 11.7886 2.3578L15.0771 3.87075C15.5537 3.41219 16.8214 2.74265 18.0796 3.73295C19.3378 4.72324 18.9852 5.70437 18.6515 6.07115C18.2703 6.30038 17.4791 6.45626 17.3647 5.2459C17.2504 4.80577 16.7452 4.69574 16.5069 4.69574C16.2209 4.78743 15.7062 5.10836 15.935 5.65852C16.1637 6.20869 16.6022 6.25453 16.7928 6.20869C17.0311 6.20869 17.5077 6.40124 17.5077 7.17147V11.4352C18.1273 11.7103 19.2806 12.5631 18.9375 13.7734C18.7945 14.4611 17.3647 14.4611 17.3647 13.2233C17.2504 12.8932 16.9358 12.8107 16.7928 12.8107C16.4592 12.8565 15.8206 13.0857 15.935 13.6359C16.0494 14.1861 16.5545 14.3236 16.7928 14.3236C17.1265 14.3695 17.7079 14.6537 17.3647 15.4239C17.1741 15.7449 16.4497 16.1391 15.0771 15.1489C13.8189 15.699 12.3605 16.295 11.7886 16.5243C11.7886 16.8452 11.6456 17.487 11.0737 17.487C10.5018 17.487 10.2635 17.0286 10.2159 16.7993C10.1206 16.4326 9.72975 15.809 8.92908 16.2492C8.69078 16.5701 8.50014 17.267 9.64396 17.487C9.8346 17.5329 10.2159 17.7621 10.2159 18.3123C10.2159 18.8625 9.64396 19 9.35801 19C8.59546 19 7.09897 18.5049 7.21335 16.5243C6.52706 16.3042 4.73507 15.5156 3.92487 15.1489C3.16232 15.8366 0.207451 15.9741 0.0644733 13.4984C0.0644733 12.9482 0.350428 11.7653 1.49425 11.4352V7.5841C0.0644504 7.30901 -0.65038 5.10836 0.779361 3.87075C1.25594 3.45821 2.55225 2.88066 3.92487 3.87075ZM4.63979 5.2459C4.75417 7.00642 3.63894 7.53825 3.06703 7.5841V11.4352C4.43962 11.7653 4.68745 13.1316 4.63979 13.7734L7.78529 15.2864C9.27226 13.856 10.5972 14.6904 11.0737 15.2864C11.6457 15.0113 13.1041 14.3236 14.3623 13.7734C14.1335 12.233 15.3154 11.5728 15.935 11.4352V7.5841C14.5624 7.254 14.3146 5.88776 14.3623 5.2459C13.9333 5.06251 12.7037 4.50318 11.2168 3.73295C9.72979 4.94331 8.40486 4.23727 7.92827 3.73295C7.11806 4.09972 5.32608 4.9158 4.63979 5.2459ZM1.49428 5.52098C1.49431 4.86078 2.0662 4.69574 2.35215 4.69574C2.59044 4.69574 3.21001 4.86078 3.21001 5.52098C3.21001 6.18118 2.59044 6.34623 2.35215 6.34623C2.06618 6.34623 1.49425 6.18118 1.49428 5.52098ZM8.64316 2.22C8.64316 1.5598 9.07209 1.39475 9.50102 1.39475C9.92995 1.39475 10.3589 1.5598 10.3589 2.22C10.3589 2.88019 9.73932 3.04524 9.50102 3.04524C9.21507 3.04524 8.64316 2.88019 8.64316 2.22ZM1.49425 13.4984C1.49422 12.9482 2.06617 12.719 2.35215 12.6731C2.59044 12.6731 3.06703 12.8382 3.06703 13.4984C3.06703 14.1586 2.59044 14.3236 2.35215 14.3236C2.06619 14.2778 1.49428 14.0485 1.49425 13.4984Z" fill="rgba(0, 0, 0, 0.85)"/>
<path fill-rule="evenodd" clip-rule="evenodd" d="M7.0704 8.13426C7.02273 7.26317 7.41352 5.49347 9.35801 5.38344C11.3025 5.27341 11.7886 7.17147 11.7886 8.13426C12.1699 8.22595 12.9325 8.62941 12.9325 9.50967V12.5356C12.8848 12.7648 12.618 13.2233 11.9316 13.2233H6.78445C6.54615 13.2233 6.06956 13.0582 6.06956 12.398V9.50967C6.0219 9.18874 6.15535 8.46436 7.0704 8.13426ZM10.2159 7.99672H8.64316C8.54784 7.67579 8.55736 7.00642 9.35801 6.89639C10.1587 6.78636 10.2635 7.5841 10.2159 7.99672ZM11.3597 11.7103H7.64231H7.49934V9.92229C7.49934 9.70223 7.88061 9.55552 8.07125 9.50967H10.6448C11.1024 9.50967 11.3121 9.78475 11.3597 9.92229V11.7103Z" fill="rgba(0, 0, 0, 0.85)"/>
</svg>
