<svg width="40" height="40" viewBox="0 0 40 40" fill="none" xmlns="http://www.w3.org/2000/svg">
<path d="M16.5625 26.5312C16.5625 26.7203 16.4078 26.875 16.2188 26.875H14.1562C13.9672 26.875 13.8125 26.7203 13.8125 26.5312V13.4688C13.8125 13.2797 13.9672 13.125 14.1562 13.125H16.2188C16.4078 13.125 16.5625 13.2797 16.5625 13.4688V26.5312Z" fill="white"/>
<path d="M26.1875 26.5312C26.1875 26.7203 26.0328 26.875 25.8438 26.875H23.7812C23.5922 26.875 23.4375 26.7203 23.4375 26.5312V13.4688C23.4375 13.2797 23.5922 13.125 23.7812 13.125H25.8438C26.0328 13.125 26.1875 13.2797 26.1875 13.4688V26.5312Z" fill="white"/>
<path fillRule="evenodd" clipRule="evenodd" d="M20 0.75C9.36953 0.75 0.75 9.36953 0.75 20C0.75 30.6305 9.36953 39.25 20 39.25C30.6305 39.25 39.25 30.6305 39.25 20C39.25 9.36953 30.6305 0.75 20 0.75ZM16.2188 26.875C16.4078 26.875 16.5625 26.7203 16.5625 26.5312V13.4688C16.5625 13.2797 16.4078 13.125 16.2188 13.125H14.1562C13.9672 13.125 13.8125 13.2797 13.8125 13.4688V26.5312C13.8125 26.7203 13.9672 26.875 14.1562 26.875H16.2188ZM25.8438 26.875C26.0328 26.875 26.1875 26.7203 26.1875 26.5312V13.4688C26.1875 13.2797 26.0328 13.125 25.8438 13.125H23.7812C23.5922 13.125 23.4375 13.2797 23.4375 13.4688V26.5312C23.4375 26.7203 23.5922 26.875 23.7812 26.875H25.8438Z" fill="#399DEE"/>
</svg>
