<svg xmlns="http://www.w3.org/2000/svg" viewBox="0 0 64 64" width="32" height="32">
  <linearGradient id="a" x1="32" x2="32" y1="19" y2="49" gradientUnits="userSpaceOnUse">
    <stop offset="0" stop-color="#6dc7ff"/>
    <stop offset="1" stop-color="#e6abff"/>
  </linearGradient>
  <path fill="url(#a)" d="M32.008 19v3c6.557 0 11.823 5.139 11.988 11.699.166 6.615-5.08 12.131-11.695 12.297-.102.003-.206.004-.308.004-6.558 0-11.824-5.139-11.989-11.699-.166-6.615 5.08-12.131 11.695-12.297.103-.003.206-.004.308-.004l.001-3m-.001 0c-.127 0-.256.002-.384.005-8.282.208-14.827 7.09-14.619 15.372C17.21 42.53 23.883 49 31.993 49c.127 0 .256-.002.384-.005 8.282-.208 14.827-7.09 14.619-15.372C46.79 25.47 40.117 18.999 32.007 19z"/>
  <linearGradient id="b" x1="32" x2="32" y1="6" y2="58" gradientUnits="userSpaceOnUse">
    <stop offset="0" stop-color="#1a6dff"/>
    <stop offset="1" stop-color="#c822ff"/>
  </linearGradient>
  <path fill="url(#b)" d="m38.251 8.031.595 3.964.173 1.155 1.085.431C48.527 16.928 53.969 24.942 53.969 34c0 1.733-.208 3.473-.619 5.174l-.274 1.135.842.808 2.894 2.776-7.22 10.206-3.582-1.805-1.045-.526-.98.639c-3.571 2.331-7.716 3.563-11.987 3.563s-8.417-1.232-11.987-3.563l-.98-.639-1.045.526-3.582 1.805-7.22-10.206 2.894-2.776.842-.808-.274-1.135c-.41-1.7-.619-3.441-.619-5.174 0-9.058 5.442-17.072 13.865-20.419l1.085-.431.173-1.155.595-3.964h12.506M40 6H24l-.854 5.694C14.275 15.218 8 23.873 8 34c0 1.947.238 3.838.675 5.65l-4.156 3.986 9.24 13.062 5.144-2.592C22.67 56.566 27.166 58 32 58s9.33-1.434 13.097-3.893l5.144 2.592 9.24-13.062-4.156-3.986C55.762 37.838 56 35.947 56 34c0-10.127-6.275-18.782-15.146-22.306L40 6zm-7 21V16h-2v11h-2l3 6 3-6h-2zm5.435 10.231 1.18-1.615L33 34.5l3.076 5.962 1.18-1.615 8.883 6.488 1.18-1.615-8.884-6.489zM31 34.5l-6.615 1.116 1.18 1.615-8.883 6.488 1.18 1.615 8.883-6.488 1.18 1.615L31 34.5z"/>
</svg>
