<svg width="19" height="19" viewBox="0 0 19 19" fill="none" xmlns="http://www.w3.org/2000/svg">
<path d="M15.4775 13.3999L13.5146 11.4387L11.3782 13.5769L10.9959 13.4353C9.83647 13.0095 8.78354 12.3367 7.91003 11.4635C7.03653 10.5903 6.36335 9.53759 5.93713 8.37836L5.79553 7.99603L5.81146 7.9801L7.93549 5.85962L5.97254 3.89844L4.12286 5.74811C3.93347 5.93927 3.84497 6.20831 3.88922 6.47028C4.23438 8.55713 5.35657 10.6369 7.04694 12.3273C8.73731 14.0176 10.8188 15.1398 12.9057 15.485C13.1677 15.5292 13.4367 15.4407 13.6279 15.2496L15.4775 13.3999Z" fill="white"/>
<path d="M14.525 16.1518L16.4083 14.2667C16.6384 14.0366 16.7676 13.7286 16.7676 13.403C16.7676 13.0773 16.6401 12.7693 16.4083 12.5392L14.3816 10.509C14.1515 10.2789 13.8417 10.1497 13.5161 10.1497C13.1886 10.1497 12.8824 10.2771 12.6505 10.509L11.0628 12.0949C10.221 11.7336 9.45616 11.2145 8.80957 10.5656C8.15643 9.91602 7.64136 9.15668 7.27673 8.31415L8.86444 6.72821C9.09454 6.49811 9.22375 6.19012 9.22375 5.86444C9.22435 5.7038 9.19287 5.54466 9.13118 5.39633C9.06948 5.24801 8.97879 5.1135 8.86444 5.00067L6.83777 2.96869C6.60767 2.73859 6.29791 2.60938 5.97223 2.60938C5.64478 2.60938 5.33856 2.73682 5.10669 2.96869L3.22339 4.85199C2.83044 5.24493 2.60565 5.78656 2.60565 6.34235C2.60565 6.4574 2.6145 6.56891 2.63397 6.68219C3.01984 9.0257 4.2677 11.3515 6.14392 13.2295C8.02368 15.1057 10.3495 16.3518 12.6948 16.7412C13.3603 16.8527 14.0453 16.6297 14.525 16.1518ZM12.9054 15.4863C10.8185 15.1411 8.737 14.0189 7.04663 12.3286C5.35626 10.6382 4.23407 8.55841 3.88892 6.47156C3.84467 6.20959 3.93317 5.94055 4.12256 5.74939L5.97223 3.89972L7.93518 5.8609L5.81116 7.98138L5.79523 7.99731L5.93683 8.37964C6.36304 9.53887 7.03622 10.5916 7.90973 11.4648C8.78323 12.338 9.83616 13.0108 10.9955 13.4366L11.3779 13.5782L13.5143 11.44L15.4772 13.4012L13.6276 15.2509C13.4364 15.442 13.1674 15.5305 12.9054 15.4863Z" fill="white"/>
</svg>
