<svg width="20" height="20" viewBox="0 0 15 15" fill="none" xmlns="http://www.w3.org/2000/svg">
<path d="M12.525 14.1518L14.4083 12.2667C14.6384 12.0366 14.7676 11.7286 14.7676 11.403C14.7676 11.0773 14.6401 10.7693 14.4083 10.5392L12.3816 8.50897C12.1515 8.27887 11.8417 8.14966 11.5161 8.14966C11.1886 8.14966 10.8824 8.2771 10.6505 8.50897L9.06281 10.0949C8.22101 9.73362 7.45616 9.21451 6.80957 8.56561C6.15643 7.91602 5.64136 7.15668 5.27673 6.31415L6.86444 4.72821C7.09454 4.49811 7.22375 4.19012 7.22375 3.86444C7.22435 3.7038 7.19287 3.54466 7.13118 3.39633C7.06948 3.24801 6.97879 3.1135 6.86444 3.00067L4.83777 0.968689C4.60767 0.738586 4.29791 0.609375 3.97223 0.609375C3.64478 0.609375 3.33856 0.736816 3.10669 0.968689L1.22339 2.85199C0.830444 3.24493 0.605652 3.78656 0.605652 4.34235C0.605652 4.4574 0.614502 4.56891 0.633972 4.68219C1.01984 7.0257 2.2677 9.3515 4.14392 11.2295C6.02368 13.1057 8.34949 14.3518 10.6948 14.7412C11.3603 14.8527 12.0453 14.6297 12.525 14.1518ZM10.9054 13.4863C8.81854 13.1411 6.737 12.0189 5.04663 10.3286C3.35626 8.63818 2.23407 6.55841 1.88892 4.47156C1.84467 4.20959 1.93317 3.94055 2.12256 3.74939L3.97223 1.89972L5.93518 3.8609L3.81116 5.98138L3.79523 5.99731L3.93683 6.37964C4.36304 7.53887 5.03622 8.59157 5.90973 9.46477C6.78323 10.338 7.83616 11.0108 8.99554 11.4366L9.37787 11.5782L11.5143 9.44L13.4772 11.4012L11.6276 13.2509C11.4364 13.442 11.1674 13.5305 10.9054 13.4863Z" fill="white"/>
</svg>
