<svg xmlns="http://www.w3.org/2000/svg"  viewBox="0 0 64 64" width="64px" height="64px"><linearGradient id="IxuXNr4ADUB9uB8gEwZX1a" x1="32" x2="32" y1="19" y2="49" gradientUnits="userSpaceOnUse"><stop offset="0" stop-color="#6dc7ff"/><stop offset="1" stop-color="#e6abff"/></linearGradient><path fill="url(#IxuXNr4ADUB9uB8gEwZX1a)" d="M32.008,19v3c6.557,0,11.823,5.139,11.988,11.699c0.166,6.615-5.08,12.131-11.695,12.297	C32.199,45.999,32.095,46,31.993,46c-6.558,0-11.824-5.139-11.989-11.699c-0.166-6.615,5.08-12.131,11.695-12.297	C31.802,22.001,31.905,22,32.007,22L32.008,19 M32.007,19c-0.127,0-0.256,0.002-0.384,0.005c-8.282,0.208-14.827,7.09-14.619,15.372	C17.21,42.53,23.883,49,31.993,49c0.127,0,0.256-0.002,0.384-0.005c8.282-0.208,14.827-7.09,14.619-15.372	C46.79,25.47,40.117,18.999,32.007,19L32.007,19z"/><linearGradient id="IxuXNr4ADUB9uB8gEwZX1b" x1="32" x2="32" y1="6" y2="58" gradientUnits="userSpaceOnUse"><stop offset="0" stop-color="#1a6dff"/><stop offset="1" stop-color="#c822ff"/></linearGradient><path fill="url(#IxuXNr4ADUB9uB8gEwZX1b)" d="M38.251,8.031l0.595,3.964l0.173,1.155l1.085,0.431C48.527,16.928,53.969,24.942,53.969,34	c0,1.733-0.208,3.473-0.619,5.174l-0.274,1.135l0.842,0.808l2.894,2.776l-7.22,10.206l-3.582-1.805l-1.045-0.526l-0.98,0.639	c-3.571,2.331-7.716,3.563-11.987,3.563s-8.417-1.232-11.987-3.563l-0.98-0.639l-1.045,0.526l-3.582,1.805l-7.22-10.206l2.894-2.776	l0.842-0.808l-0.274-1.135c-0.41-1.7-0.619-3.441-0.619-5.174c0-9.058,5.442-17.072,13.865-20.419l1.085-0.431l0.173-1.155	l0.595-3.964H38.251 M40,6H24l-0.854,5.694C14.275,15.218,8,23.873,8,34c0,1.947,0.238,3.838,0.675,5.65l-4.156,3.986l9.24,13.062	l5.144-2.592C22.67,56.566,27.166,58,32,58s9.33-1.434,13.097-3.893l5.144,2.592l9.24-13.062l-4.156-3.986	C55.762,37.838,56,35.947,56,34c0-10.127-6.275-18.782-15.146-22.306L40,6L40,6z M33,27V16h-2v11h-2l3,6l3-6H33z M38.435,37.231	l1.18-1.615L33,34.5l3.076,5.962l1.18-1.615l8.883,6.488l1.18-1.615L38.435,37.231z M31,34.5l-6.615,1.116l1.18,1.615l-8.883,6.488	l1.18,1.615l8.883-6.488l1.18,1.615L31,34.5z"/></svg>