<svg width="18" height="21" viewBox="0 0 18 21" fill="none" xmlns="http://www.w3.org/2000/svg">
<path d="M17.5196 13.2116L15.7196 11.4016V6.9416C15.7435 5.28543 15.1674 3.67651 14.0977 2.41194C13.028 1.14737 11.5368 0.312538 9.89958 0.0616032C8.9494 -0.0635296 7.98345 0.0154181 7.06619 0.293179C6.14893 0.570939 5.30146 1.04113 4.58031 1.67236C3.85916 2.3036 3.28093 3.08138 2.88419 3.9538C2.48745 4.82622 2.28133 5.77321 2.27958 6.7316V11.4016L0.479585 13.2116C0.253491 13.4415 0.100168 13.7329 0.0387851 14.0494C-0.0225982 14.3659 0.0106811 14.6935 0.134462 14.9912C0.258244 15.289 0.467035 15.5436 0.734736 15.7233C1.00244 15.903 1.31717 15.9998 1.63958 16.0016H4.99958V16.3416C5.04629 17.3568 5.49354 18.3121 6.24331 18.9981C6.99308 19.6842 7.98424 20.045 8.99959 20.0016C10.0149 20.045 11.0061 19.6842 11.7559 18.9981C12.5056 18.3121 12.9529 17.3568 12.9996 16.3416V16.0016H16.3596C16.682 15.9998 16.9967 15.903 17.2644 15.7233C17.5321 15.5436 17.7409 15.289 17.8647 14.9912C17.9885 14.6935 18.0218 14.3659 17.9604 14.0494C17.899 13.7329 17.7457 13.4415 17.5196 13.2116ZM10.9996 16.3416C10.9441 16.8226 10.7052 17.2637 10.3327 17.5729C9.96008 17.8821 9.48257 18.0357 8.99959 18.0016C8.5166 18.0357 8.03908 17.8821 7.66651 17.5729C7.29394 17.2637 7.05504 16.8226 6.99958 16.3416V16.0016H10.9996V16.3416ZM2.50958 14.0016L3.68958 12.8216C3.87675 12.6355 4.02525 12.4143 4.12651 12.1706C4.22777 11.9269 4.27979 11.6655 4.27958 11.4016V6.7316C4.28013 6.057 4.42497 5.39033 4.70438 4.77631C4.98379 4.1623 5.39131 3.61516 5.89958 3.1716C6.401 2.71729 6.99516 2.37735 7.64093 2.17534C8.28669 1.97332 8.96865 1.91404 9.63959 2.0016C10.7961 2.18938 11.8458 2.78861 12.5955 3.68898C13.3452 4.58935 13.7444 5.73024 13.7196 6.9016V11.4016C13.7181 11.6648 13.7685 11.9257 13.868 12.1694C13.9676 12.4131 14.1142 12.6347 14.2996 12.8216L15.4896 14.0016H2.50958Z" fill="black"/>
</svg>
